<svg width="953" height="143" viewBox="0 0 953 143" fill="none" xmlns="http://www.w3.org/2000/svg">
<g filter="url(#filter0_d_2155_6673)">
<mask id="path-1-outside-1_2155_6673" maskUnits="userSpaceOnUse" x="12" y="12" width="929" height="148" fill="black">
<rect fill="white" x="12" y="12" width="929" height="148"/>
<path d="M64.048 156H13.552V15.648H62.704C104.176 15.648 132.784 44.256 132.784 86.112C132.784 127.392 104.752 156 64.048 156ZM60.4 38.304H38.128V133.344H61.744C89.776 133.344 106.864 115.296 106.864 86.112C106.864 56.352 89.392 38.304 60.4 38.304ZM154.717 104.736V15.648H179.293V103.2C179.293 123.36 190.237 134.496 210.205 134.496C230.173 134.496 241.309 123.168 241.309 103.2V15.648H265.885V104.736C265.885 137.568 244.381 158.304 210.205 158.304C176.221 158.304 154.717 137.76 154.717 104.736ZM320.691 156H296.115V15.648H349.683C381.555 15.648 400.179 31.776 400.179 59.424C400.179 78.24 391.347 91.68 374.835 98.4L401.523 156H374.643L350.835 103.584H320.691V156ZM320.691 37.536V81.888H349.683C365.235 81.888 374.451 73.632 374.451 59.424C374.451 45.408 365.235 37.536 349.683 37.536H320.691ZM483.693 158.304C442.797 158.304 416.301 129.888 416.301 85.92C416.301 42.336 443.757 13.344 484.845 13.344C518.061 13.344 542.829 32.736 547.629 62.88H521.708C516.909 46.56 502.893 36.96 484.269 36.96C458.349 36.96 442.029 55.776 442.029 85.728C442.029 115.488 458.541 134.688 484.269 134.688C503.277 134.688 517.869 124.704 522.477 109.152H548.013C542.637 138.72 516.909 158.304 483.693 158.304ZM594.628 156H570.052V15.648H594.628V73.632H656.836V15.648H681.412V156H656.836V96.48H594.628V156ZM799.72 156H712.552V15.648H799.72V38.304H737.128V74.4H793.192V96.096H737.128V133.344H799.72V156ZM861.693 85.92L815.037 15.648H844.221L861.309 40.8C867.069 49.44 871.869 57.504 877.053 67.104L909.693 15.648H938.301L892.413 85.728L938.493 156H909.5L893.757 132.768C887.613 123.36 882.621 114.912 877.053 104.736L842.877 156H814.077L861.693 85.92Z"/>
</mask>
<path d="M64.048 156H13.552V15.648H62.704C104.176 15.648 132.784 44.256 132.784 86.112C132.784 127.392 104.752 156 64.048 156ZM60.4 38.304H38.128V133.344H61.744C89.776 133.344 106.864 115.296 106.864 86.112C106.864 56.352 89.392 38.304 60.4 38.304ZM154.717 104.736V15.648H179.293V103.2C179.293 123.36 190.237 134.496 210.205 134.496C230.173 134.496 241.309 123.168 241.309 103.2V15.648H265.885V104.736C265.885 137.568 244.381 158.304 210.205 158.304C176.221 158.304 154.717 137.76 154.717 104.736ZM320.691 156H296.115V15.648H349.683C381.555 15.648 400.179 31.776 400.179 59.424C400.179 78.24 391.347 91.68 374.835 98.4L401.523 156H374.643L350.835 103.584H320.691V156ZM320.691 37.536V81.888H349.683C365.235 81.888 374.451 73.632 374.451 59.424C374.451 45.408 365.235 37.536 349.683 37.536H320.691ZM483.693 158.304C442.797 158.304 416.301 129.888 416.301 85.92C416.301 42.336 443.757 13.344 484.845 13.344C518.061 13.344 542.829 32.736 547.629 62.88H521.708C516.909 46.56 502.893 36.96 484.269 36.96C458.349 36.96 442.029 55.776 442.029 85.728C442.029 115.488 458.541 134.688 484.269 134.688C503.277 134.688 517.869 124.704 522.477 109.152H548.013C542.637 138.72 516.909 158.304 483.693 158.304ZM594.628 156H570.052V15.648H594.628V73.632H656.836V15.648H681.412V156H656.836V96.48H594.628V156ZM799.72 156H712.552V15.648H799.72V38.304H737.128V74.4H793.192V96.096H737.128V133.344H799.72V156ZM861.693 85.92L815.037 15.648H844.221L861.309 40.8C867.069 49.44 871.869 57.504 877.053 67.104L909.693 15.648H938.301L892.413 85.728L938.493 156H909.5L893.757 132.768C887.613 123.36 882.621 114.912 877.053 104.736L842.877 156H814.077L861.693 85.92Z" fill="url(#paint0_linear_2155_6673)" fill-opacity="0.2" shape-rendering="crispEdges"/>
<path d="M13.552 156H12.552V157H13.552V156ZM13.552 15.648V14.648H12.552V15.648H13.552ZM38.128 38.304V37.304H37.128V38.304H38.128ZM38.128 133.344H37.128V134.344H38.128V133.344ZM64.048 155H13.552V157H64.048V155ZM14.552 156V15.648H12.552V156H14.552ZM13.552 16.648H62.704V14.648H13.552V16.648ZM62.704 16.648C83.204 16.648 100.459 23.7143 112.588 35.8897C124.716 48.0654 131.784 65.4174 131.784 86.112H133.784C133.784 64.9506 126.548 47.0706 114.004 34.4783C101.461 21.8857 83.676 14.648 62.704 14.648V16.648ZM131.784 86.112C131.784 106.521 124.858 123.731 112.967 135.835C101.077 147.938 84.1584 155 64.048 155V157C84.6416 157 102.091 149.758 114.393 137.237C126.694 124.717 133.784 106.983 133.784 86.112H131.784ZM60.4 37.304H38.128V39.304H60.4V37.304ZM37.128 38.304V133.344H39.128V38.304H37.128ZM38.128 134.344H61.744V132.344H38.128V134.344ZM61.744 134.344C75.9806 134.344 87.5415 129.755 95.5399 121.362C103.533 112.974 107.864 100.897 107.864 86.112H105.864C105.864 100.511 101.651 112.05 94.0921 119.982C86.5385 127.909 75.5394 132.344 61.744 132.344V134.344ZM107.864 86.112C107.864 71.0378 103.436 58.8125 95.2215 50.3514C87.0035 41.8866 75.107 37.304 60.4 37.304V39.304C74.685 39.304 86.0205 43.7453 93.7865 51.7446C101.556 59.7475 105.864 71.4262 105.864 86.112H107.864ZM154.717 15.648V14.648H153.717V15.648H154.717ZM179.293 15.648H180.293V14.648H179.293V15.648ZM241.309 15.648V14.648H240.309V15.648H241.309ZM265.885 15.648H266.885V14.648H265.885V15.648ZM155.717 104.736V15.648H153.717V104.736H155.717ZM154.717 16.648H179.293V14.648H154.717V16.648ZM178.293 15.648V103.2H180.293V15.648H178.293ZM178.293 103.2C178.293 113.455 181.079 121.565 186.549 127.11C192.022 132.658 200.039 135.496 210.205 135.496V133.496C200.403 133.496 192.964 130.766 187.973 125.706C182.979 120.643 180.293 113.105 180.293 103.2H178.293ZM210.205 135.496C220.375 135.496 228.438 132.608 233.955 127.04C239.472 121.473 242.309 113.366 242.309 103.2H240.309C240.309 113.002 237.578 120.542 232.535 125.632C227.492 130.72 220.003 133.496 210.205 133.496V135.496ZM242.309 103.2V15.648H240.309V103.2H242.309ZM241.309 16.648H265.885V14.648H241.309V16.648ZM264.885 15.648V104.736H266.885V15.648H264.885ZM264.885 104.736C264.885 120.928 259.588 134.043 250.167 143.112C240.743 152.185 227.091 157.304 210.205 157.304V159.304C227.495 159.304 241.683 154.055 251.555 144.552C261.43 135.045 266.885 121.376 266.885 104.736H264.885ZM210.205 157.304C193.414 157.304 179.811 152.232 170.411 143.184C161.015 134.139 155.717 121.025 155.717 104.736H153.717C153.717 121.471 159.171 135.141 169.023 144.624C178.871 154.104 193.012 159.304 210.205 159.304V157.304ZM320.69 156V157H321.69V156H320.69ZM296.115 156H295.115V157H296.115V156ZM296.115 15.648V14.648H295.115V15.648H296.115ZM374.835 98.4L374.458 97.4738L373.486 97.869L373.927 98.8204L374.835 98.4ZM401.523 156V157H403.088L402.43 155.58L401.523 156ZM374.643 156L373.732 156.414L373.998 157H374.643V156ZM350.835 103.584L351.745 103.17L351.479 102.584H350.835V103.584ZM320.69 103.584V102.584H319.69V103.584H320.69ZM320.69 37.536V36.536H319.69V37.536H320.69ZM320.69 81.888H319.69V82.888H320.69V81.888ZM320.69 155H296.115V157H320.69V155ZM297.115 156V15.648H295.115V156H297.115ZM296.115 16.648H349.682V14.648H296.115V16.648ZM349.682 16.648C365.461 16.648 377.824 20.6403 386.228 27.9237C394.612 35.1899 399.178 45.8375 399.178 59.424H401.178C401.178 45.3625 396.433 34.1221 387.537 26.4123C378.661 18.7197 365.776 14.648 349.682 14.648V16.648ZM399.178 59.424C399.178 68.6735 397.009 76.5396 392.861 82.9018C388.714 89.2615 382.55 94.1802 374.458 97.4738L375.211 99.3262C383.631 95.8998 390.139 90.7385 394.536 83.9942C398.932 77.2524 401.178 68.9905 401.178 59.424H399.178ZM373.927 98.8204L400.615 156.42L402.43 155.58L375.742 97.9796L373.927 98.8204ZM401.523 155H374.643V157H401.523V155ZM375.553 155.586L351.745 103.17L349.924 103.998L373.732 156.414L375.553 155.586ZM350.835 102.584H320.69V104.584H350.835V102.584ZM319.69 103.584V156H321.69V103.584H319.69ZM319.69 37.536V81.888H321.69V37.536H319.69ZM320.69 82.888H349.682V80.888H320.69V82.888ZM349.682 82.888C357.627 82.888 364.086 80.7784 368.569 76.7258C373.066 72.6607 375.451 66.753 375.451 59.424H373.451C373.451 66.303 371.227 71.6273 367.228 75.2422C363.215 78.8696 357.29 80.888 349.682 80.888V82.888ZM375.451 59.424C375.451 52.1855 373.062 46.4165 368.557 42.4717C364.072 38.5437 357.616 36.536 349.682 36.536V38.536C357.301 38.536 363.229 40.4643 367.24 43.9763C371.231 47.4714 373.451 52.6465 373.451 59.424H375.451ZM349.682 36.536H320.69V38.536H349.682V36.536ZM547.629 62.88V63.88H548.8L548.616 62.7227L547.629 62.88ZM521.708 62.88L520.749 63.1622L520.96 63.88H521.708V62.88ZM522.477 109.152V108.152H521.73L521.518 108.868L522.477 109.152ZM548.013 109.152L548.996 109.331L549.211 108.152H548.013V109.152ZM483.693 157.304C463.486 157.304 446.916 150.291 435.392 137.918C423.862 125.539 417.301 107.704 417.301 85.92H415.301C415.301 108.104 421.987 126.461 433.929 139.282C445.877 152.109 463.003 159.304 483.693 159.304V157.304ZM417.301 85.92C417.301 64.3389 424.095 46.4552 435.891 33.9749C447.683 21.4997 464.545 14.344 484.845 14.344V12.344C464.056 12.344 446.646 19.6843 434.438 32.6011C422.234 45.5128 415.301 63.9171 415.301 85.92H417.301ZM484.845 14.344C517.64 14.344 541.929 33.4455 546.641 63.0373L548.616 62.7227C543.728 32.0265 518.481 12.344 484.845 12.344V14.344ZM547.629 61.88H521.708V63.88H547.629V61.88ZM522.668 62.5978C517.725 45.7928 503.271 35.96 484.268 35.96V37.96C502.514 37.96 516.092 47.3272 520.749 63.1622L522.668 62.5978ZM484.268 35.96C471.05 35.96 460.203 40.767 452.673 49.4571C445.157 58.1313 441.029 70.5775 441.029 85.728H443.029C443.029 70.9265 447.06 58.9887 454.184 50.7668C461.294 42.561 471.567 37.96 484.268 37.96V35.96ZM441.029 85.728C441.029 100.787 445.207 113.278 452.743 122.021C460.293 130.779 471.138 135.688 484.268 135.688V133.688C471.671 133.688 461.396 128.997 454.258 120.715C447.106 112.418 443.029 100.429 443.029 85.728H441.029ZM484.268 135.688C503.635 135.688 518.679 125.489 523.435 109.436L521.518 108.868C517.058 123.919 502.918 133.688 484.268 133.688V135.688ZM522.477 110.152H548.013V108.152H522.477V110.152ZM547.029 108.973C541.752 137.993 516.503 157.304 483.693 157.304V159.304C517.314 159.304 543.521 139.447 548.996 109.331L547.029 108.973ZM594.628 156V157H595.628V156H594.628ZM570.052 156H569.052V157H570.052V156ZM570.052 15.648V14.648H569.052V15.648H570.052ZM594.628 15.648H595.628V14.648H594.628V15.648ZM594.628 73.632H593.628V74.632H594.628V73.632ZM656.836 73.632V74.632H657.836V73.632H656.836ZM656.836 15.648V14.648H655.836V15.648H656.836ZM681.412 15.648H682.412V14.648H681.412V15.648ZM681.412 156V157H682.412V156H681.412ZM656.836 156H655.836V157H656.836V156ZM656.836 96.48H657.836V95.48H656.836V96.48ZM594.628 96.48V95.48H593.628V96.48H594.628ZM594.628 155H570.052V157H594.628V155ZM571.052 156V15.648H569.052V156H571.052ZM570.052 16.648H594.628V14.648H570.052V16.648ZM593.628 15.648V73.632H595.628V15.648H593.628ZM594.628 74.632H656.836V72.632H594.628V74.632ZM657.836 73.632V15.648H655.836V73.632H657.836ZM656.836 16.648H681.412V14.648H656.836V16.648ZM680.412 15.648V156H682.412V15.648H680.412ZM681.412 155H656.836V157H681.412V155ZM657.836 156V96.48H655.836V156H657.836ZM656.836 95.48H594.628V97.48H656.836V95.48ZM593.628 96.48V156H595.628V96.48H593.628ZM799.72 156V157H800.72V156H799.72ZM712.552 156H711.552V157H712.552V156ZM712.552 15.648V14.648H711.552V15.648H712.552ZM799.72 15.648H800.72V14.648H799.72V15.648ZM799.72 38.304V39.304H800.72V38.304H799.72ZM737.128 38.304V37.304H736.128V38.304H737.128ZM737.128 74.4H736.128V75.4H737.128V74.4ZM793.192 74.4H794.192V73.4H793.192V74.4ZM793.192 96.096V97.096H794.192V96.096H793.192ZM737.128 96.096V95.096H736.128V96.096H737.128ZM737.128 133.344H736.128V134.344H737.128V133.344ZM799.72 133.344H800.72V132.344H799.72V133.344ZM799.72 155H712.552V157H799.72V155ZM713.552 156V15.648H711.552V156H713.552ZM712.552 16.648H799.72V14.648H712.552V16.648ZM798.72 15.648V38.304H800.72V15.648H798.72ZM799.72 37.304H737.128V39.304H799.72V37.304ZM736.128 38.304V74.4H738.128V38.304H736.128ZM737.128 75.4H793.192V73.4H737.128V75.4ZM792.192 74.4V96.096H794.192V74.4H792.192ZM793.192 95.096H737.128V97.096H793.192V95.096ZM736.128 96.096V133.344H738.128V96.096H736.128ZM737.128 134.344H799.72V132.344H737.128V134.344ZM798.72 133.344V156H800.72V133.344H798.72ZM861.693 85.92L862.52 86.482L862.897 85.9264L862.526 85.3669L861.693 85.92ZM815.036 15.648V14.648H813.172L814.203 16.2011L815.036 15.648ZM844.221 15.648L845.048 15.086L844.75 14.648H844.221V15.648ZM861.308 40.8L862.141 40.2453L862.136 40.238L861.308 40.8ZM877.052 67.104L876.173 67.5791L876.983 69.0802L877.897 67.6396L877.052 67.104ZM909.693 15.648V14.648H909.143L908.848 15.1123L909.693 15.648ZM938.301 15.648L939.137 16.1958L940.151 14.648H938.301V15.648ZM892.412 85.728L891.576 85.1802L891.217 85.7284L891.576 86.2764L892.412 85.728ZM938.492 156V157H940.344L939.329 155.452L938.492 156ZM909.5 156L908.673 156.561L908.97 157H909.5V156ZM893.757 132.768L892.919 133.315L892.924 133.322L892.929 133.329L893.757 132.768ZM877.052 104.736L877.93 104.256L877.137 102.807L876.22 104.181L877.052 104.736ZM842.877 156V157H843.412L843.709 156.555L842.877 156ZM814.076 156L813.249 155.438L812.188 157H814.076V156ZM862.526 85.3669L815.87 15.0949L814.203 16.2011L860.859 86.4731L862.526 85.3669ZM815.036 16.648H844.221V14.648H815.036V16.648ZM843.393 16.21L860.481 41.362L862.136 40.238L845.048 15.086L843.393 16.21ZM860.476 41.3547C866.217 49.9659 871.001 58.003 876.173 67.5791L877.932 66.6288C872.736 57.005 867.92 48.9141 862.141 40.2453L860.476 41.3547ZM877.897 67.6396L910.537 16.1837L908.848 15.1123L876.208 66.5683L877.897 67.6396ZM909.693 16.648H938.301V14.648H909.693V16.648ZM937.464 15.1002L891.576 85.1802L893.249 86.2758L939.137 16.1958L937.464 15.1002ZM891.576 86.2764L937.656 156.548L939.329 155.452L893.249 85.1796L891.576 86.2764ZM938.492 155H909.5V157H938.492V155ZM910.328 155.439L894.584 132.207L892.929 133.329L908.673 156.561L910.328 155.439ZM894.594 132.221C888.466 122.838 883.487 114.413 877.93 104.256L876.175 105.216C881.754 115.411 886.759 123.882 892.919 133.315L894.594 132.221ZM876.22 104.181L842.044 155.445L843.709 156.555L877.885 105.291L876.22 104.181ZM842.877 155H814.076V157H842.877V155ZM814.904 156.562L862.52 86.482L860.865 85.358L813.249 155.438L814.904 156.562Z" fill="#9C6FF6" fill-opacity="0.2" mask="url(#path-1-outside-1_2155_6673)"/>
</g>
<defs>
<filter id="filter0_d_2155_6673" x="0.551758" y="0.343994" width="951.792" height="170.96" filterUnits="userSpaceOnUse" color-interpolation-filters="sRGB">
<feFlood flood-opacity="0" result="BackgroundImageFix"/>
<feColorMatrix in="SourceAlpha" type="matrix" values="0 0 0 0 0 0 0 0 0 0 0 0 0 0 0 0 0 0 127 0" result="hardAlpha"/>
<feOffset/>
<feGaussianBlur stdDeviation="6"/>
<feComposite in2="hardAlpha" operator="out"/>
<feColorMatrix type="matrix" values="0 0 0 0 0.505882 0 0 0 0 0.286275 0 0 0 0 0.956863 0 0 0 0.2 0"/>
<feBlend mode="normal" in2="BackgroundImageFix" result="effect1_dropShadow_2155_6673"/>
<feBlend mode="normal" in="SourceGraphic" in2="effect1_dropShadow_2155_6673" result="shape"/>
</filter>
<linearGradient id="paint0_linear_2155_6673" x1="470" y1="156" x2="470" y2="10" gradientUnits="userSpaceOnUse">
<stop stop-color="#B0ABBA" stop-opacity="0.8"/>
<stop offset="1" stop-opacity="0"/>
</linearGradient>
</defs>
</svg>
