<svg width="163" height="32" viewBox="0 0 163 32" fill="none" xmlns="http://www.w3.org/2000/svg">
<rect x="30.8569" y="13.7142" width="4.57143" height="4.57143" fill="#9C6FF6"/>
<rect x="35.4287" y="18.2858" width="4.57143" height="4.57143" fill="#F2ECFE"/>
<rect x="26.2856" y="18.2858" width="4.57143" height="4.57143" fill="#F2ECFE"/>
<rect x="40" y="22.8572" width="4.57143" height="4.57143" fill="#9C6FF6"/>
<rect x="44.5713" y="27.4286" width="4.57143" height="4.57143" fill="#F2ECFE"/>
<rect x="35.4287" y="9.14282" width="4.57143" height="4.57143" fill="#F2ECFE"/>
<rect x="26.2856" y="9.14282" width="4.57143" height="4.57143" fill="#F2ECFE"/>
<rect x="40" y="4.57141" width="4.57143" height="4.57143" fill="#9C6FF6"/>
<rect x="44.5713" width="4.57143" height="4.57143" fill="#F2ECFE"/>
<path d="M0 31.9978V0H11.313C20.5481 0.175331 25.1656 6.20962 26.32 9.20485H19.6246C17.5928 6.22423 12.9291 5.33297 10.8512 5.25992H5.77193V26.7379H11.0821C16.0691 26.7379 18.855 24.1079 19.6246 22.793H26.32C22.626 30.3322 15.084 32.0709 11.7747 31.9978H0Z" fill="#F2ECFE"/>
<path d="M70.7418 24H65.4818V9.38H70.6018C74.9218 9.38 77.9018 12.36 77.9018 16.72C77.9018 21.02 74.9818 24 70.7418 24ZM70.3618 11.74H68.0418V21.64H70.5018C73.4218 21.64 75.2018 19.76 75.2018 16.72C75.2018 13.62 73.3818 11.74 70.3618 11.74ZM80.1865 18.66V9.38H82.7465V18.5C82.7465 20.6 83.8865 21.76 85.9665 21.76C88.0465 21.76 89.2065 20.58 89.2065 18.5V9.38H91.7665V18.66C91.7665 22.08 89.5265 24.24 85.9665 24.24C82.4265 24.24 80.1865 22.1 80.1865 18.66ZM97.4754 24H94.9154V9.38H100.495C103.815 9.38 105.755 11.06 105.755 13.94C105.755 15.9 104.835 17.3 103.115 18L105.895 24H103.095L100.615 18.54H97.4754V24ZM97.4754 11.66V16.28H100.495C102.115 16.28 103.075 15.42 103.075 13.94C103.075 12.48 102.115 11.66 100.495 11.66H97.4754ZM114.455 24.24C110.195 24.24 107.435 21.28 107.435 16.7C107.435 12.16 110.295 9.14 114.575 9.14C118.035 9.14 120.615 11.16 121.115 14.3H118.415C117.915 12.6 116.455 11.6 114.515 11.6C111.815 11.6 110.115 13.56 110.115 16.68C110.115 19.78 111.835 21.78 114.515 21.78C116.495 21.78 118.015 20.74 118.495 19.12H121.155C120.595 22.2 117.915 24.24 114.455 24.24ZM126.011 24H123.451V9.38H126.011V15.42H132.491V9.38H135.051V24H132.491V17.8H126.011V24ZM147.374 24H138.294V9.38H147.374V11.74H140.854V15.5H146.694V17.76H140.854V21.64H147.374V24ZM153.83 16.7L148.97 9.38H152.01L153.79 12C154.39 12.9 154.89 13.74 155.43 14.74L158.83 9.38H161.81L157.03 16.68L161.83 24H158.81L157.17 21.58C156.53 20.6 156.01 19.72 155.43 18.66L151.87 24H148.87L153.83 16.7Z" fill="#F2ECFE"/>
</svg>
